<svg width="18" height="26" viewBox="0 0 26 26" fill="none" xmlns="http://www.w3.org/2000/svg">
<path d="M15.3213 13.2783L9.19304 19.4066C7.50076 21.0988 4.75705 21.0988 3.06478 19.4066V19.4066C1.37251 17.7143 1.37251 14.9706 3.06478 13.2783L9.19304 7.15006" stroke="#FF7A00" stroke-width="3" stroke-linecap="round"/>
<path d="M15.3213 13.2783L9.19304 19.4066C7.50076 21.0988 4.75705 21.0988 3.06478 19.4066V19.4066C1.37251 17.7143 1.37251 14.9706 3.06478 13.2783L9.19304 7.15006" stroke="#FF7A00" stroke-width="3" stroke-linecap="round"/>
<path d="M10.2139 12.2568L16.3421 6.12858C18.0344 4.43631 20.7781 4.43631 22.4704 6.12858V6.12858C24.1627 7.82085 24.1627 10.5646 22.4704 12.2568L16.3421 18.3851" stroke="#FF7A00" stroke-width="3" stroke-linecap="round"/>
<path d="M10.2139 12.2568L16.3421 6.12858C18.0344 4.43631 20.7781 4.43631 22.4704 6.12858V6.12858C24.1627 7.82085 24.1627 10.5646 22.4704 12.2568L16.3421 18.3851" stroke="#FF7A00" stroke-width="3" stroke-linecap="round"/>
</svg>
