<svg width="26" height="41" viewBox="0 0 41 41" fill="none" xmlns="http://www.w3.org/2000/svg">
<path d="M4.46918 25.3992C2.79934 23.7294 2.79934 21.0221 4.46918 19.3522L19.3542 4.46723C21.024 2.79739 23.7314 2.79738 25.4012 4.46722C27.071 6.13706 27.071 8.84441 25.4012 10.5143L10.5162 25.3992C8.84637 27.0691 6.13902 27.0691 4.46918 25.3992Z" fill="#FF7A00"/>
<path d="M15.2768 36.1996C13.607 34.5298 13.607 31.8224 15.2768 30.1526L30.1618 15.2676C31.8316 13.5978 34.539 13.5978 36.2088 15.2676C37.8787 16.9374 37.8787 19.6448 36.2088 21.3146L21.3238 36.1996C19.654 37.8695 16.9466 37.8695 15.2768 36.1996Z" fill="#FF7A00"/>
</svg>
