<svg width="20" height="22" viewBox="0 0 28 22" fill="none" xmlns="http://www.w3.org/2000/svg">
<path d="M19.1824 6.53599V4.25133C19.1824 2.35104 17.6419 0.810547 15.7416 0.810547V0.810547C13.8413 0.810547 12.3008 2.35104 12.3008 4.25133V6.53599V10.7909V15.3011C12.3008 18.3795 14.7963 20.875 17.8747 20.875H20.6468C24.2465 20.875 27.1646 17.9569 27.1646 14.3573V14.3573C27.1646 10.0377 23.6629 6.53599 19.3433 6.53599H19.1824Z" stroke="#FF7A00" stroke-width="1.5" stroke-linecap="round" stroke-linejoin="round"/>
<path d="M4.21068 20.875H5.64258C7.29943 20.875 8.64258 19.5319 8.64258 17.875L8.64258 10.2499C8.64258 8.593 7.29943 7.24985 5.64258 7.24985H4.21068C2.55383 7.24985 1.21068 8.593 1.21068 10.2499L1.21068 17.875C1.21068 19.5319 2.55383 20.875 4.21068 20.875Z" stroke="#FF7A00" stroke-width="1.5" stroke-linecap="round" stroke-linejoin="round"/>
</svg>
