<svg width="28" height="29" viewBox="0 0 37 29" fill="none" xmlns="http://www.w3.org/2000/svg">
<path d="M24.6729 8.54164V5.53226C24.6729 3.02916 22.6438 1 20.1407 1V1C17.6376 1 15.6084 3.02916 15.6084 5.53226V8.54164V14.1463V20.0872C15.6084 24.1421 18.8955 27.4292 22.9504 27.4292H26.6019C31.3434 27.4292 35.1872 23.5854 35.1872 18.8439V18.8439C35.1872 13.1541 30.5747 8.54164 24.8849 8.54164H24.6729Z" stroke="#444444" stroke-width="2" stroke-linecap="round" stroke-linejoin="round"/>
<path d="M0.999661 14.3772L0.999661 22.535C0.999661 25.2383 3.19109 27.4297 5.89436 27.4297C8.59763 27.4297 10.7891 25.2383 10.7891 22.535L10.7891 14.3772C10.7891 11.6739 8.59763 9.48245 5.89436 9.48245C3.19109 9.48245 0.999661 11.6739 0.999661 14.3772Z" stroke="#444444" stroke-width="2" stroke-linecap="round" stroke-linejoin="round"/>
</svg>
