<svg width="130" height="34" viewBox="0 0 186 51" fill="none" xmlns="http://www.w3.org/2000/svg">
<rect x="55.7764" y="8.99609" width="20.2415" height="8.09659" rx="4.04829" fill="#5A5550"/>
<rect x="80.2603" y="5.39795" width="20.6913" height="7.64678" rx="3.82339" fill="#5A5550"/>
<rect x="55.7764" y="19.3418" width="20.2415" height="8.09659" rx="4.04829" fill="#5A5550"/>
<rect x="102.751" y="12.5947" width="13.0445" height="7.19697" rx="3.59848" fill="#5A5550"/>
<rect x="123.128" y="8.99609" width="20.2415" height="8.09659" rx="4.04829" fill="#5A5550"/>
<rect x="123.128" width="20.2415" height="7.64678" rx="3.82339" fill="#5A5550"/>
<rect x="147.612" y="5.39795" width="20.6913" height="7.64678" rx="3.82339" fill="#5A5550"/>
<rect x="123.128" y="19.3418" width="20.2415" height="8.09659" rx="4.04829" fill="#5A5550"/>
<rect x="170.102" y="12.5947" width="13.0445" height="7.19697" rx="3.59848" fill="#5A5550"/>
<rect x="62.9734" width="17.0928" height="7.19697" rx="3.59848" transform="rotate(90 62.9734 0)" fill="#5A5550"/>
<rect x="109.048" y="5.39795" width="22.0407" height="7.19697" rx="3.59848" transform="rotate(90 109.048 5.39795)" fill="#5A5550"/>
<rect x="118.494" y="5.39795" width="22.0407" height="7.64678" rx="3.82339" transform="rotate(90 118.494 5.39795)" fill="#5A5550"/>
<rect x="94.6541" width="10.7955" height="7.64678" rx="3.82339" transform="rotate(90 94.6541 0)" fill="#5A5550"/>
<rect x="69.2708" y="13.0444" width="12.1449" height="7.19697" rx="3.59848" transform="rotate(90 69.2708 13.0444)" fill="#5A5550"/>
<rect x="130.775" width="17.0928" height="7.64678" rx="3.82339" transform="rotate(90 130.775 0)" fill="#5A5550"/>
<rect x="176.849" y="5.39795" width="22.0407" height="7.64678" rx="3.82339" transform="rotate(90 176.849 5.39795)" fill="#5A5550"/>
<rect x="185.845" y="5.39795" width="22.0407" height="7.64678" rx="3.82339" transform="rotate(90 185.845 5.39795)" fill="#5A5550"/>
<rect x="162.005" width="10.7955" height="7.64678" rx="3.82339" transform="rotate(90 162.005 0)" fill="#5A5550"/>
<rect x="137.072" y="13.0444" width="12.1449" height="7.64678" rx="3.82339" transform="rotate(90 137.072 13.0444)" fill="#5A5550"/>
<path fill-rule="evenodd" clip-rule="evenodd" d="M65.5247 49.3546C71.1569 49.3546 75.7227 44.7887 75.7227 39.1565C75.7227 33.5243 71.1569 28.9585 65.5247 28.9585C59.8925 28.9585 55.3267 33.5243 55.3267 39.1565C55.3267 44.7887 59.8925 49.3546 65.5247 49.3546ZM65.5247 41.6541C66.904 41.6541 68.0222 40.5359 68.0222 39.1566C68.0222 37.7773 66.904 36.6591 65.5247 36.6591C64.1454 36.6591 63.0272 37.7773 63.0272 39.1566C63.0272 40.5359 64.1454 41.6541 65.5247 41.6541Z" fill="#5A5550"/>
<path fill-rule="evenodd" clip-rule="evenodd" d="M90.2644 27.2672C95.8967 27.2672 100.462 22.7013 100.462 17.0691C100.462 11.4369 95.8967 6.87109 90.2644 6.87109C84.6322 6.87109 80.0664 11.4369 80.0664 17.0691C80.0664 22.7013 84.6322 27.2672 90.2644 27.2672ZM90.2644 19.5666C91.6437 19.5666 92.7619 18.4484 92.7619 17.0691C92.7619 15.6898 91.6437 14.5716 90.2644 14.5716C88.8851 14.5716 87.7669 15.6898 87.7669 17.0691C87.7669 18.4484 88.8851 19.5666 90.2644 19.5666Z" fill="#5A5550"/>
<path fill-rule="evenodd" clip-rule="evenodd" d="M108.45 49.3546C114.083 49.3546 118.649 44.7887 118.649 39.1565C118.649 33.5243 114.083 28.9585 108.45 28.9585C102.818 28.9585 98.2524 33.5243 98.2524 39.1565C98.2524 44.7887 102.818 49.3546 108.45 49.3546ZM108.45 41.6541C109.83 41.6541 110.948 40.5359 110.948 39.1566C110.948 37.7773 109.83 36.6591 108.45 36.6591C107.071 36.6591 105.953 37.7773 105.953 39.1566C105.953 40.5359 107.071 41.6541 108.45 41.6541Z" fill="#5A5550"/>
<path fill-rule="evenodd" clip-rule="evenodd" d="M132.996 49.3546C138.629 49.3546 143.194 44.7887 143.194 39.1565C143.194 33.5243 138.629 28.9585 132.996 28.9585C127.364 28.9585 122.798 33.5243 122.798 39.1565C122.798 44.7887 127.364 49.3546 132.996 49.3546ZM132.996 41.6541C134.376 41.6541 135.494 40.5359 135.494 39.1566C135.494 37.7773 134.376 36.6591 132.996 36.6591C131.617 36.6591 130.499 37.7773 130.499 39.1566C130.499 40.5359 131.617 41.6541 132.996 41.6541Z" fill="#5A5550"/>
<path fill-rule="evenodd" clip-rule="evenodd" d="M157.736 27.2672C163.368 27.2672 167.934 22.7013 167.934 17.0691C167.934 11.4369 163.368 6.87109 157.736 6.87109C152.104 6.87109 147.538 11.4369 147.538 17.0691C147.538 22.7013 152.104 27.2672 157.736 27.2672ZM157.736 19.5666C159.115 19.5666 160.233 18.4484 160.233 17.0691C160.233 15.6898 159.115 14.5716 157.736 14.5716C156.357 14.5716 155.238 15.6898 155.238 17.0691C155.238 18.4484 156.357 19.5666 157.736 19.5666Z" fill="#5A5550"/>
<path fill-rule="evenodd" clip-rule="evenodd" d="M175.802 49.3546C181.434 49.3546 186 44.7887 186 39.1565C186 33.5243 181.434 28.9585 175.802 28.9585C170.17 28.9585 165.604 33.5243 165.604 39.1565C165.604 44.7887 170.17 49.3546 175.802 49.3546ZM175.802 41.6541C177.181 41.6541 178.3 40.5359 178.3 39.1566C178.3 37.7773 177.181 36.6591 175.802 36.6591C174.423 36.6591 173.305 37.7773 173.305 39.1566C173.305 40.5359 174.423 41.6541 175.802 41.6541Z" fill="#5A5550"/>
<path d="M6.29735 23.3262C9.77528 23.3262 12.5947 26.1456 12.5947 29.6235C12.5947 34.0951 16.2197 37.7201 20.6913 37.7201C25.1629 37.7201 28.7879 34.0951 28.7879 29.6235C28.7879 26.1456 31.6073 23.3262 35.0852 23.3262C38.5631 23.3262 41.3826 26.1456 41.3826 29.6235C41.3826 41.051 32.1188 50.3148 20.6913 50.3148C9.26381 50.3148 0 41.051 0 29.6235C0 26.1456 2.81941 23.3262 6.29735 23.3262Z" fill="#FF9C40"/>
<path d="M7.03112 10.2815H5.39773C2.41664 10.2815 0 12.6981 0 15.6792C0 18.6603 2.41665 21.077 5.39773 21.077H35.9848C38.9659 21.077 41.3826 18.6603 41.3826 15.6792C41.3826 12.6981 38.9659 10.2815 35.9848 10.2815H34.6346L31.2968 1.9747C30.8174 0.781705 29.6609 0 28.3751 0H13.2906C12.0049 0 10.8484 0.781705 10.369 1.9747L7.03112 10.2815Z" fill="#93D900"/>
</svg>
