<svg width="22" height="34" viewBox="0 0 31 34" fill="none" xmlns="http://www.w3.org/2000/svg">
<mask id="path-1-inside-1_701_797" fill="white">
<path fill-rule="evenodd" clip-rule="evenodd" d="M23 25.8754V26.4506H22.9665C22.5146 30.3102 17.5535 33.3504 11.5 33.3504C5.44648 33.3504 0.485392 30.3102 0.0335407 26.4506H0V25.8754V21.8506H1.80764C3.85119 19.7757 7.4285 18.4004 11.5 18.4004C15.5715 18.4004 19.1488 19.7757 21.1924 21.8506H23V25.8754Z"/>
</mask>
<path fill-rule="evenodd" clip-rule="evenodd" d="M23 25.8754V26.4506H22.9665C22.5146 30.3102 17.5535 33.3504 11.5 33.3504C5.44648 33.3504 0.485392 30.3102 0.0335407 26.4506H0V25.8754V21.8506H1.80764C3.85119 19.7757 7.4285 18.4004 11.5 18.4004C15.5715 18.4004 19.1488 19.7757 21.1924 21.8506H23V25.8754Z" fill="white"/>
<path d="M23 26.4506V28.4506H25V26.4506H23ZM22.9665 26.4506V24.4506H21.1869L20.98 26.218L22.9665 26.4506ZM0.0335407 26.4506L2.01997 26.218L1.81305 24.4506H0.0335407V26.4506ZM0 26.4506H-2V28.4506H0V26.4506ZM0 21.8506V19.8506H-2V21.8506H0ZM1.80764 21.8506V23.8506H2.64499L3.23257 23.254L1.80764 21.8506ZM21.1924 21.8506L19.7674 23.254L20.355 23.8506H21.1924V21.8506ZM23 21.8506H25V19.8506H23V21.8506ZM21 25.8754V26.4506H25V25.8754H21ZM23 24.4506H22.9665V28.4506H23V24.4506ZM20.98 26.218C20.8494 27.3337 20.025 28.592 18.2985 29.6367C16.596 30.6668 14.2097 31.3504 11.5 31.3504V35.3504C14.8438 35.3504 17.9648 34.5138 20.3692 33.059C22.7496 31.6186 24.6317 29.4271 24.9529 26.6831L20.98 26.218ZM11.5 31.3504C8.79025 31.3504 6.404 30.6668 4.70152 29.6367C2.97504 28.592 2.15059 27.3337 2.01997 26.218L-1.95289 26.6831C-1.63165 29.4271 0.250359 31.6186 2.63076 33.059C5.03517 34.5138 8.15622 35.3504 11.5 35.3504V31.3504ZM0.0335407 24.4506H0V28.4506H0.0335407V24.4506ZM2 26.4506V25.8754H-2V26.4506H2ZM2 25.8754V21.8506H-2V25.8754H2ZM0 23.8506H1.80764V19.8506H0V23.8506ZM3.23257 23.254C4.80896 21.6534 7.81844 20.4004 11.5 20.4004V16.4004C7.03856 16.4004 2.89342 17.898 0.382706 20.4472L3.23257 23.254ZM11.5 20.4004C15.1816 20.4004 18.191 21.6534 19.7674 23.254L22.6173 20.4472C20.1066 17.898 15.9614 16.4004 11.5 16.4004V20.4004ZM21.1924 23.8506H23V19.8506H21.1924V23.8506ZM21 21.8506V25.8754H25V21.8506H21Z" fill="#FF7A00" mask="url(#path-1-inside-1_701_797)"/>
<path d="M22 21.2758C22 22.8896 20.9927 24.4841 19.0867 25.723C17.1903 26.9557 14.5108 27.7508 11.5 27.7508C8.48924 27.7508 5.80973 26.9557 3.91326 25.723C2.00731 24.4841 1 22.8896 1 21.2758C1 19.662 2.0073 18.0675 3.91326 16.8286C5.80973 15.5959 8.48924 14.8008 11.5 14.8008C14.5108 14.8008 17.1903 15.5959 19.0867 16.8286C20.9927 18.0675 22 19.662 22 21.2758Z" fill="white" stroke="#FF7A00" stroke-width="2"/>
<mask id="path-4-inside-2_701_797" fill="white">
<path fill-rule="evenodd" clip-rule="evenodd" d="M28.1291 11.3202C28.1216 11.3001 28.114 11.28 28.1062 11.26C28.0985 11.24 28.0906 11.22 28.0826 11.2001L26.6511 7.50731L24.9659 8.16056C22.3106 6.96463 18.4781 6.9753 14.6819 8.44685C10.8858 9.9184 8.04743 12.4936 6.89192 15.1668L5.20596 15.8203L6.86856 20.1094L6.90021 20.0971C8.71642 23.5325 14.441 24.5742 20.0854 22.3862C25.7298 20.1982 29.2566 15.5703 28.2828 11.8083L28.3137 11.7963L28.1291 11.3202Z"/>
</mask>
<path fill-rule="evenodd" clip-rule="evenodd" d="M28.1291 11.3202C28.1216 11.3001 28.114 11.28 28.1062 11.26C28.0985 11.24 28.0906 11.22 28.0826 11.2001L26.6511 7.50731L24.9659 8.16056C22.3106 6.96463 18.4781 6.9753 14.6819 8.44685C10.8858 9.9184 8.04743 12.4936 6.89192 15.1668L5.20596 15.8203L6.86856 20.1094L6.90021 20.0971C8.71642 23.5325 14.441 24.5742 20.0854 22.3862C25.7298 20.1982 29.2566 15.5703 28.2828 11.8083L28.3137 11.7963L28.1291 11.3202Z" fill="white"/>
<path d="M28.1291 11.3202L26.2551 12.0188L26.2596 12.031L26.2643 12.0431L28.1291 11.3202ZM28.0826 11.2001L26.2178 11.923L26.2225 11.9351L26.2273 11.9472L28.0826 11.2001ZM26.6511 7.50731L28.5159 6.78444L27.793 4.91964L25.9282 5.64252L26.6511 7.50731ZM24.9659 8.16056L24.1446 9.98414L24.9081 10.328L25.6888 10.0253L24.9659 8.16056ZM6.89192 15.1668L7.61479 17.0316L8.39551 16.7289L8.72774 15.9603L6.89192 15.1668ZM5.20596 15.8203L4.48308 13.9555L2.61829 14.6784L3.34116 16.5432L5.20596 15.8203ZM6.86856 20.1094L5.00377 20.8322L5.72664 22.697L7.59143 21.9742L6.86856 20.1094ZM6.90021 20.0971L8.66832 19.1623L7.8366 17.5891L6.17734 18.2323L6.90021 20.0971ZM28.2828 11.8083L27.56 9.94351L25.9007 10.5867L26.3466 12.3095L28.2828 11.8083ZM28.3137 11.7963L29.0366 13.6611L30.9014 12.9383L30.1785 11.0735L28.3137 11.7963ZM26.2414 11.9829C26.2461 11.9949 26.2506 12.0068 26.2551 12.0188L30.0031 10.6216C29.9926 10.5934 29.9819 10.5652 29.971 10.5371L26.2414 11.9829ZM26.2273 11.9472C26.2321 11.959 26.2368 11.9709 26.2414 11.9829L29.971 10.5371C29.9601 10.509 29.9491 10.481 29.9378 10.4531L26.2273 11.9472ZM24.7863 8.23018L26.2178 11.923L29.9474 10.4773L28.5159 6.78444L24.7863 8.23018ZM25.6888 10.0253L27.374 9.3721L25.9282 5.64252L24.243 6.29576L25.6888 10.0253ZM15.4048 10.3116C18.8374 8.98103 22.0963 9.0616 24.1446 9.98414L25.7872 6.33698C22.5249 4.86767 18.1188 4.96957 13.9591 6.58206L15.4048 10.3116ZM8.72774 15.9603C9.61911 13.8983 11.9722 11.6423 15.4048 10.3116L13.9591 6.58206C9.79933 8.19455 6.47575 11.089 5.05609 14.3732L8.72774 15.9603ZM5.92883 17.6851L7.61479 17.0316L6.16904 13.302L4.48308 13.9555L5.92883 17.6851ZM8.73335 19.3865L7.07075 15.0975L3.34116 16.5432L5.00377 20.8322L8.73335 19.3865ZM6.17734 18.2323L6.14569 18.2446L7.59143 21.9742L7.62308 21.9619L6.17734 18.2323ZM19.3625 20.5214C16.8359 21.5008 14.3639 21.7259 12.4042 21.3807C10.4168 21.0307 9.19331 20.1554 8.66832 19.1623L5.13209 21.0318C6.42332 23.4742 8.97022 24.8375 11.7103 25.3201C14.478 25.8076 17.6905 25.4596 20.8083 24.251L19.3625 20.5214ZM26.3466 12.3095C26.6281 13.3969 26.3142 14.8682 25.0821 16.4663C23.867 18.0421 21.8891 19.542 19.3625 20.5214L20.8083 24.251C23.926 23.0424 26.5338 21.1343 28.2498 18.9087C29.9487 16.7053 30.9113 13.9817 30.219 11.3071L26.3466 12.3095ZM27.5908 9.93154L27.56 9.94351L29.0057 13.6731L29.0366 13.6611L27.5908 9.93154ZM26.2643 12.0431L26.4489 12.5192L30.1785 11.0735L29.9939 10.5973L26.2643 12.0431Z" fill="#FF7A00" mask="url(#path-4-inside-2_701_797)"/>
<path d="M25.5133 7.33253C26.0966 8.83726 25.7337 10.688 24.4043 12.532C23.0816 14.3668 20.8706 16.0767 18.0634 17.1649C15.2562 18.2531 12.4704 18.4802 10.2566 18.0163C8.03176 17.55 6.51625 16.4274 5.93296 14.9227C5.34966 13.418 5.71257 11.5672 7.0419 9.72319C8.36462 7.88837 10.5756 6.17853 13.3828 5.09034C16.1901 4.00214 18.9758 3.77503 21.1896 4.23895C23.4145 4.70519 24.93 5.82781 25.5133 7.33253Z" fill="white" stroke="#FF7A00" stroke-width="2"/>
</svg>
