<svg width="18" height="25" viewBox="0 0 25 25" fill="none" xmlns="http://www.w3.org/2000/svg">
<path d="M9.535 2.49014C8.74073 1.02772 7.83112 1.50219 7.28937 1.9149L7.28871 1.9154C5.39316 3.35975 4.91926 3.72084 4.36625 4.83802C2.49675 10.3182 6.11385 14.938 8.08871 16.9124L11.4295 13.5716C10.3011 12.4433 8.49918 9.86325 9.99692 8.79829C11.9491 7.41019 11.6636 6.56746 11.5207 6.1462L9.535 2.49014Z" fill="#FF7A00" stroke="#FF7A00"/>
<path d="M22.5118 15.465C23.9742 16.2593 23.4998 17.1689 23.087 17.7106L23.0865 17.7113C21.6422 19.6068 21.2811 20.0807 20.1639 20.6337C14.6837 22.5032 10.0639 18.8861 8.08952 16.9113L11.4303 13.5705C12.5586 14.6989 15.1387 16.5008 16.2036 15.0031C17.5918 13.0509 18.4345 13.3364 18.8557 13.4793L22.5118 15.465Z" fill="#FF7A00" stroke="#FF7A00"/>
</svg>
